# xmcd
#
# Track frame offsets:
#	150
#	14259
#	27387
#	41921
#	58261
#	74254
#	90463
#	104663
#	123832
#	135571
#	147136
#	159925
#	176656
#	198556
#	214019
#	230670
#	245891
#	258095
#
# Disc length: 3639 seconds
#
# Revision: 0
# Processed by: cddbd v1.5.2PL0 Copyright (c) Steve Scherf et al.
# Submitted via: audiograbber 1.83.01
#
DISCID=070e3512
DTITLE=Various Artist - Australia's Best Rodeo Songs Vol 2
DYEAR=2000
DGENRE=Country
TTITLE0=Lee Kernaghan - Cowgirls Do
TTITLE1=Cliff Guy - West
TTITLE2=T.J. Dennis - Bedroom Rodeo
TTITLE3=Cameron Daddo - Wanna B. Goode
TTITLE4=Steve Gibson - Space Cowboy
TTITLE5=Cam Fletcher - One Last Ride
TTITLE6=Country Born - Crakajack
TTITLE7=Sovereign - See Them Ride
TTITLE8=Sherrie Austin - Put Your Heart Into It
TTITLE9=Keith Glass - What This Baby Will Do
TTITLE10=Fatman Don't Linedance - Wild Girls
TTITLE11=Magnificent 7 - Party Till the Cows Come Home
TTITLE12=Col Finley - Devils Ride
TTITLE13=Clint Beattie - Running Out Of Road
TTITLE14=Kerry Kennedy - Western Plains
TTITLE15=Brendan Smoother - Woman Of The Saddle
TTITLE16=Keith Urban - Clutterbilly
TTITLE17=Space Cowboy (Remix) - Steve Gibson
EXTD=
EXTT0=
EXTT1=
EXTT2=
EXTT3=
EXTT4=
EXTT5=
EXTT6=
EXTT7=
EXTT8=
EXTT9=
EXTT10=
EXTT11=
EXTT12=
EXTT13=
EXTT14=
EXTT15=
EXTT16=
EXTT17=
PLAYORDER=
